<?xml version="1.0" standalone="no"?>
<!DOCTYPE svg PUBLIC "-//W3C//DTD SVG 20010904//EN"
 "http://www.w3.org/TR/2001/REC-SVG-20010904/DTD/svg10.dtd">
<svg version="1.0" xmlns="http://www.w3.org/2000/svg"
 width="840.000000pt" height="880.000000pt" viewBox="0 0 840.000000 880.000000"
 preserveAspectRatio="xMidYMid meet">

<g transform="translate(0.000000,880.000000) scale(0.100000,-0.100000)"
fill="#fff" stroke="none">
<path d="M2340 8383 c-535 -53 -1057 -301 -1440 -683 -183 -184 -327 -385
-444 -620 -108 -218 -165 -388 -219 -660 -21 -104 -21 -124 -25 -1945 -3
-1916 -3 -1946 39 -2163 173 -897 867 -1626 1754 -1843 279 -68 142 -64 2200
-64 1748 0 1867 1 1975 18 515 82 962 308 1325 672 306 305 515 669 620 1080
75 290 70 145 70 2220 0 1724 -1 1868 -18 1970 -86 544 -321 998 -711 1373
-375 360 -855 583 -1381 642 -83 9 -3654 12 -3745 3z m3691 -364 c238 -24 456
-84 661 -181 651 -311 1076 -925 1138 -1648 14 -158 13 -3400 0 -3580 -23
-304 -115 -601 -265 -856 -335 -569 -919 -934 -1575 -984 -184 -14 -3422 -13
-3585 1 -464 39 -885 229 -1218 549 -311 297 -503 658 -589 1101 l-22 114 -4
1775 c-4 1886 -3 1920 44 2143 57 272 187 556 356 781 130 172 356 379 538
494 94 59 299 155 418 196 117 40 307 82 432 95 129 13 3545 13 3671 0z"/>
<path d="M6289 6927 c-239 -68 -343 -345 -206 -550 81 -120 221 -183 354 -158
128 23 221 93 273 202 88 187 6 405 -184 490 -59 26 -174 34 -237 16z"/>
<path d="M3950 6379 c-267 -34 -563 -139 -788 -280 -479 -298 -801 -758 -918
-1312 -35 -167 -44 -483 -20 -661 127 -907 838 -1602 1756 -1716 108 -13 329
-13 445 0 877 101 1584 763 1746 1633 26 143 36 423 20 562 -37 315 -148 628
-312 880 -312 480 -831 810 -1398 889 -120 17 -416 20 -531 5z m482 -364 c193
-29 336 -74 503 -158 703 -352 1058 -1159 840 -1912 -157 -542 -578 -963
-1120 -1120 -449 -130 -948 -56 -1340 199 -589 384 -866 1092 -695 1772 147
585 600 1037 1185 1185 62 15 146 32 187 37 118 15 329 13 440 -3z"/>
</g>
</svg>
